<svg width="17" height="17" viewBox="0 0 17 17" fill="none" xmlns="http://www.w3.org/2000/svg">
<path fill-rule="evenodd" clip-rule="evenodd" d="M15.339 1.23904C15.7205 1.13623 16.0701 1.48487 15.9685 1.86658L14.9595 5.65469C14.9026 5.86831 14.7153 6.02147 14.4946 6.03483L12.7184 6.14235V11.2676L14.4946 11.3751C14.7153 11.3884 14.9026 11.5416 14.9595 11.7552L15.9685 15.5433C16.0701 15.9251 15.7205 16.2737 15.339 16.1709L11.5789 15.1573C11.3659 15.0999 11.2134 14.9127 11.2002 14.6925L11.0987 12.9947H5.90131L5.79976 14.6925C5.78658 14.9127 5.6341 15.0999 5.42108 15.1573L1.66092 16.1709C1.27951 16.2737 0.929829 15.9251 1.0315 15.5433L2.04048 11.7552C2.09738 11.5416 2.28468 11.3885 2.50534 11.3751L4.18992 11.2731V6.13681L2.50534 6.03483C2.28468 6.02148 2.09738 5.86831 2.04049 5.6547L1.0315 1.86659C0.929832 1.48487 1.27951 1.13624 1.66092 1.23905L5.42108 2.25261C5.63411 2.31003 5.78658 2.4972 5.79976 2.71743L5.90131 4.41517H11.0987L11.2002 2.71743C11.2134 2.49719 11.3659 2.31003 11.5789 2.2526L15.339 1.23904ZM6.75567 6.98092V10.429H10.1527V6.98092H6.75567Z" fill="black"/>
</svg>
