<svg width="18" height="18" viewBox="0 0 18 18" fill="none" xmlns="http://www.w3.org/2000/svg">
<path fill-rule="evenodd" clip-rule="evenodd" d="M15.9257 1.23908C16.3078 1.13608 16.6582 1.48535 16.5563 1.86776L15.5455 5.6628C15.4885 5.8768 15.3008 6.03025 15.0798 6.04363L13.3003 6.15135V11.2859L15.0798 11.3937C15.3008 11.407 15.4885 11.5605 15.5455 11.7745L16.5563 15.5695C16.6582 15.9519 16.3078 16.3012 15.9257 16.1982L12.1587 15.1828C11.9453 15.1253 11.7925 14.9378 11.7793 14.7171L11.6776 13.0163H6.47073L6.36899 14.7171C6.3558 14.9378 6.20304 15.1253 5.98962 15.1828L2.22259 16.1982C1.84048 16.3012 1.49016 15.9519 1.59202 15.5695L2.60285 11.7745C2.65985 11.5605 2.84749 11.407 3.06855 11.3937L4.75621 11.2915V6.1458L3.06855 6.04364C2.84749 6.03026 2.65985 5.87681 2.60285 5.66281L1.59202 1.86777C1.49016 1.48535 1.84048 1.13608 2.22259 1.23908L5.98962 2.2545C6.20304 2.31202 6.3558 2.49953 6.369 2.72017L6.47073 4.42101H11.6776L11.7793 2.72017C11.7925 2.49953 11.9453 2.31202 12.1587 2.25449L15.9257 1.23908ZM7.32665 6.99145V10.4458H10.7299V6.99145H7.32665Z" fill="#78553A"/>
<path fill-rule="evenodd" clip-rule="evenodd" d="M15.6655 0.273539C16.7908 -0.0298111 17.8226 0.998861 17.5226 2.12515L16.5118 5.92018C16.3439 6.55047 15.7912 7.0024 15.1402 7.04181L14.3003 7.09265V10.3447L15.1402 10.3955C15.7912 10.4349 16.3439 10.8868 16.5118 11.5171L17.5226 15.3122C17.8226 16.4384 16.7908 17.4671 15.6655 17.1638L11.8984 16.1483C11.2699 15.9789 10.82 15.4267 10.7811 14.7768L10.7356 14.0163H7.41269L7.3672 14.7768C7.32833 15.4267 6.87843 15.9789 6.24987 16.1483L2.48284 17.1638C1.35745 17.4671 0.325706 16.4384 0.625697 15.3122L1.63652 11.5171C1.8044 10.8868 2.35705 10.4349 3.00812 10.3955L3.7562 10.3502V7.0871L3.00812 7.04181C2.35705 7.0024 1.8044 6.55047 1.63653 5.92019L0.625699 2.12515C0.325708 0.998868 1.35746 -0.0298071 2.48284 0.273543L6.24987 1.28896C6.87843 1.45839 7.32833 2.01063 7.3672 2.66046L7.41269 3.42101H10.7356L10.7811 2.66046C10.82 2.01063 11.2699 1.45838 11.8984 1.28895L15.6655 0.273539ZM11.6776 4.42101H6.47072L6.36898 2.72017C6.35579 2.49953 6.20303 2.31202 5.98961 2.2545L2.22258 1.23908C1.84047 1.13608 1.49015 1.48536 1.59201 1.86777L2.60284 5.66281C2.65984 5.87681 2.84748 6.03026 3.06854 6.04364L4.7562 6.1458V11.2915L3.06854 11.3937C2.84748 11.407 2.65983 11.5605 2.60283 11.7745L1.59201 15.5695C1.49015 15.9519 1.84047 16.3012 2.22257 16.1982L5.98961 15.1828C6.20303 15.1253 6.35578 14.9378 6.36898 14.7171L6.47072 13.0163H11.6776L11.7793 14.7171C11.7925 14.9378 11.9453 15.1253 12.1587 15.1828L15.9257 16.1982C16.3078 16.3012 16.6581 15.9519 16.5563 15.5695L15.5455 11.7745C15.4885 11.5605 15.3008 11.407 15.0798 11.3937L13.3003 11.2859V6.15135L15.0797 6.04363C15.3008 6.03025 15.4885 5.87681 15.5455 5.6628L16.5563 1.86776C16.6581 1.48535 16.3078 1.13608 15.9257 1.23908L12.1587 2.25449C11.9453 2.31202 11.7925 2.49953 11.7793 2.72017L11.6776 4.42101ZM8.32664 7.99145V9.44584H9.72989V7.99145H8.32664ZM7.32664 6.99145H10.7299V10.4458H7.32664V6.99145Z" fill="white"/>
</svg>
