<svg width="12" height="13" viewBox="0 0 12 13" fill="none" xmlns="http://www.w3.org/2000/svg">
<path fill-rule="evenodd" clip-rule="evenodd" d="M10.4588 1.22541C10.8304 1.12523 11.1712 1.46493 11.0721 1.83687L10.4353 4.22751C10.3799 4.43564 10.1974 4.58489 9.98238 4.5979L8.80926 4.66892V8.3311L9.98238 8.40211C10.1974 8.41513 10.3799 8.56437 10.4353 8.77251L11.0721 11.1631C11.1711 11.5351 10.8304 11.8748 10.4588 11.7746L8.08766 11.1355C7.88009 11.0795 7.73152 10.8971 7.71868 10.6825L7.65185 9.56524H3.93813L3.8713 10.6825C3.85846 10.8971 3.70989 11.0795 3.50232 11.1355L1.13118 11.7746C0.759541 11.8748 0.418825 11.5351 0.517891 11.1631L1.15465 8.77251C1.21009 8.56437 1.39259 8.41513 1.60759 8.40211L2.71527 8.33506V4.66496L1.6076 4.59791C1.39259 4.58489 1.21009 4.43565 1.15465 4.22751L0.517895 1.83687C0.418828 1.46494 0.759544 1.12524 1.13118 1.22541L3.50232 1.86456C3.70989 1.92051 3.85846 2.10288 3.8713 2.31747L3.93813 3.43478H7.65185L7.71868 2.31747C7.73151 2.10287 7.88009 1.92051 8.08766 1.86456L10.4588 1.22541ZM4.21527 4.93478V8.06524H7.30926V4.93478H4.21527Z" fill="black"/>
</svg>
