<svg width="20" height="20" viewBox="0 0 20 20" fill="none" xmlns="http://www.w3.org/2000/svg">
<path fill-rule="evenodd" clip-rule="evenodd" d="M16.3526 2.76511C16.7347 2.66211 17.0851 3.01138 16.9832 3.3938L15.9724 7.18883C15.9154 7.40284 15.7277 7.55628 15.5067 7.56966L13.7273 7.67738V12.812L15.5067 12.9197C15.7277 12.9331 15.9154 13.0865 15.9724 13.3005L16.9832 17.0956C17.0851 17.478 16.7347 17.8273 16.3526 17.7243L12.5856 16.7088C12.3722 16.6513 12.2194 16.4638 12.2062 16.2432L12.1045 14.5423H6.89764L6.7959 16.2432C6.78271 16.4638 6.62995 16.6513 6.41653 16.7088L2.6495 17.7243C2.26739 17.8273 1.91707 17.478 2.01893 17.0956L3.02976 13.3005C3.08676 13.0865 3.2744 12.9331 3.49546 12.9197L5.18312 12.8175V7.67183L3.49547 7.56967C3.27441 7.55629 3.08676 7.40284 3.02976 7.18884L2.01893 3.3938C1.91707 3.01139 2.26739 2.66211 2.6495 2.76511L6.41653 3.78053C6.62995 3.83805 6.78271 4.02556 6.79591 4.2462L6.89764 5.94704H12.1045L12.2062 4.2462C12.2194 4.02556 12.3722 3.83805 12.5856 3.78052L16.3526 2.76511ZM7.75356 8.51748V11.9719H11.1568V8.51748H7.75356Z" fill="#78553A"/>
<path fill-rule="evenodd" clip-rule="evenodd" d="M13.7273 7.67738V12.812L15.5067 12.9197C15.7277 12.9331 15.9154 13.0865 15.9724 13.3005L16.9832 17.0956C17.0851 17.478 16.7347 17.8273 16.3526 17.7243L12.5856 16.7088C12.3722 16.6513 12.2194 16.4638 12.2062 16.2432L12.1045 14.5423H6.89764L6.79591 16.2432C6.78271 16.4638 6.62995 16.6513 6.41653 16.7088L2.6495 17.7243C2.26739 17.8273 1.91707 17.478 2.01893 17.0956L3.02976 13.3005C3.08676 13.0865 3.2744 12.9331 3.49546 12.9197L5.18312 12.8175V7.67183L3.49547 7.56967C3.27441 7.55629 3.08676 7.40284 3.02976 7.18884L2.01893 3.3938C1.91708 3.01139 2.26739 2.66211 2.6495 2.76511L6.41654 3.78053C6.62995 3.83806 6.78271 4.02556 6.79591 4.2462L6.89764 5.94704H12.1045L12.2062 4.2462C12.2194 4.02556 12.3722 3.83805 12.5856 3.78052L16.3526 2.76511C16.7347 2.66211 17.0851 3.01138 16.9832 3.3938L15.9724 7.18883C15.9154 7.40284 15.7277 7.55628 15.5067 7.56967L13.7273 7.67738ZM15.7273 9.55799C16.7647 9.45391 17.6349 8.71782 17.905 7.7036L18.9158 3.90856C19.4139 2.03841 17.7008 0.330331 15.8321 0.834033L12.0651 1.84945C11.0799 2.11502 10.359 2.94701 10.227 3.94704H8.77513C8.64316 2.94702 7.92229 2.11502 6.93706 1.84945L3.17003 0.834038C1.30137 0.330335 -0.411811 2.03841 0.0863131 3.90856L1.09714 7.7036C1.35928 8.68777 2.18641 9.41005 3.18312 9.54709V10.9423C2.18641 11.0793 1.35928 11.8016 1.09714 12.7858L0.0863107 16.5808C-0.411813 18.451 1.30137 20.159 3.17002 19.6553L6.93705 18.6399C6.93705 18.6399 6.93705 18.6399 6.93705 18.6399C7.92228 18.3743 8.64317 17.5423 8.77513 16.5423H10.227C10.359 17.5423 11.0799 18.3743 12.0651 18.6399L15.8321 19.6553C17.7008 20.159 19.4139 18.4509 18.9158 16.5808L17.905 12.7858C17.6349 11.7715 16.7647 11.0354 15.7273 10.9314V9.55799ZM7.75356 8.51748H11.1568V11.9719H7.75356V8.51748Z" fill="white"/>
</svg>
