<svg width="16" height="16" viewBox="0 0 16 16" fill="none" xmlns="http://www.w3.org/2000/svg">
<path fill-rule="evenodd" clip-rule="evenodd" d="M14.1041 1.22945C14.5604 1.10647 14.9787 1.52352 14.8571 1.98014L14.0753 4.91512C14.0073 5.17065 13.7832 5.35387 13.5192 5.36985L12.079 5.45704V9.95309L13.5192 10.0403C13.7832 10.0562 14.0073 10.2395 14.0753 10.495L14.8571 13.43C14.9787 13.8866 14.5604 14.3037 14.1041 14.1807L11.1931 13.396C10.9383 13.3273 10.7559 13.1034 10.7401 12.8399L10.658 11.4682H6.09873L6.01668 12.8399C6.00092 13.1034 5.81852 13.3273 5.56369 13.396L2.65265 14.1807C2.19639 14.3037 1.77809 13.8866 1.89972 13.43L2.68146 10.495C2.74952 10.2395 2.97358 10.0562 3.23754 10.0403L4.59743 9.95795V5.45218L3.23754 5.36986C2.97359 5.35388 2.74953 5.17066 2.68147 4.91512L1.89972 1.98014C1.7781 1.52352 2.19639 1.10647 2.65265 1.22946L5.56369 2.01414C5.81852 2.08283 6.00092 2.30672 6.01668 2.57018L6.09873 3.94189H10.658L10.7401 2.57017C10.7559 2.30672 10.9383 2.08282 11.1931 2.01413L14.1041 1.22945ZM6.43898 5.78343V9.62669H10.2375V5.78343H6.43898Z" fill="#78553A"/>
<path fill-rule="evenodd" clip-rule="evenodd" d="M13.8439 0.263915C15.0434 -0.0594212 16.1431 1.03702 15.8234 2.23752L15.0416 5.1725C14.8627 5.84431 14.2736 6.32602 13.5796 6.36802L13.079 6.39833V9.01179L13.5796 9.0421C14.2736 9.08411 14.8627 9.56581 15.0416 10.2376L15.8234 13.1726L14.857 13.43L14.0753 10.495C14.0072 10.2395 13.7832 10.0562 13.5192 10.0403L12.079 9.95309V5.45704L13.5192 5.36985C13.7832 5.35387 14.0072 5.17065 14.0753 4.91512L14.857 1.98014C14.9787 1.52352 14.5604 1.10647 14.1041 1.22945L11.1931 2.01413C10.9382 2.08282 10.7558 2.30672 10.7401 2.57017L10.658 3.94189H6.09872L6.01667 2.57018C6.00091 2.30672 5.81851 2.08283 5.56368 2.01414L2.65264 1.22946C2.19638 1.10647 1.77808 1.52352 1.89971 1.98015L2.68145 4.91513C2.74951 5.17066 2.97357 5.35388 3.23753 5.36986L4.59742 5.45218V9.95795L3.23752 10.0403C2.97357 10.0562 2.74951 10.2395 2.68145 10.495L1.8997 13.43C1.77808 13.8866 2.19638 14.3037 2.65263 14.1807L5.56367 13.396C5.81851 13.3273 6.00091 13.1034 6.01666 12.8399L6.09871 11.4682H10.658L10.7401 12.8399C10.7558 13.1034 10.9382 13.3273 11.1931 13.396L14.1041 14.1807C14.5604 14.3037 14.9787 13.8866 14.857 13.43L15.8234 13.1726C16.1431 14.3731 15.0434 15.4695 13.8439 15.1462L10.9328 14.3615C10.2628 14.1809 9.7833 13.5923 9.74187 12.8997L9.71606 12.4682H7.04069L7.01488 12.8997C6.97345 13.5923 6.49391 14.1809 5.82394 14.3615L2.9129 15.1462C1.71337 15.4695 0.613636 14.3731 0.933393 13.1726L1.71514 10.2376C1.89408 9.56581 2.48314 9.08411 3.1771 9.0421L3.59742 9.01665V6.39348L3.17711 6.36803C2.48314 6.32602 1.89408 5.84431 1.71514 5.17251L0.933397 2.23753C0.613639 1.03703 1.71337 -0.0594153 2.9129 0.263922L5.82394 1.0486C6.49391 1.22919 6.97345 1.81783 7.01489 2.51047L7.04069 2.94189H9.71606L9.74187 2.51046C9.7833 1.81782 10.2628 1.22919 10.9328 1.04859L13.8439 0.263915ZM7.43896 6.78343V8.62669H9.23744V6.78343H7.43896ZM6.43896 5.78343H10.2374V9.62669H6.43896V5.78343Z" fill="white"/>
</svg>
