<svg width="18" height="14" viewBox="0 0 18 14" fill="none" xmlns="http://www.w3.org/2000/svg">
<path fill-rule="evenodd" clip-rule="evenodd" d="M8.74338 1.5776C8.91603 1.43935 9.1615 1.43943 9.33407 1.57779L16.3576 7.20921C16.6496 7.44333 16.5663 7.90786 16.2111 8.02593C16.1926 8.03154 16.1626 8.04072 16.1251 8.05222C15.9717 8.09926 15.6919 8.18503 15.5494 8.2235C15.4035 8.2629 15.2306 8.30753 15.0329 8.35518V11.0536L14.5763 11.3292L14.4433 11.405C14.3658 11.4475 14.2559 11.5057 14.1163 11.5741C13.8372 11.7108 13.4377 11.8895 12.9395 12.0666C11.9461 12.4197 10.5411 12.7737 8.90651 12.7641C7.32207 12.7549 5.98099 12.4 5.03695 12.049C4.56374 11.8731 4.18618 11.6967 3.92266 11.5616C3.79076 11.494 3.68699 11.4365 3.61365 11.3944L3.48656 11.3184L3.04741 11.0402V8.36889C2.82534 8.314 2.63422 8.2627 2.47669 8.21821C2.34364 8.18064 2.08034 8.09598 1.93483 8.0492C1.89832 8.03746 1.86923 8.02811 1.85146 8.02248C1.50093 7.90016 1.42206 7.43987 1.71186 7.20782L8.74338 1.5776ZM8.85689 9.06623C10.4999 9.07153 11.9671 8.91847 13.1436 8.73059V9.94504C12.9296 10.0447 12.647 10.1654 12.3067 10.2864C11.4605 10.5872 10.2775 10.8828 8.91758 10.8748C7.60613 10.8672 6.48722 10.5725 5.69525 10.2781C5.38793 10.1639 5.13232 10.0506 4.93674 9.95607V8.74948C6.02139 8.92249 7.35526 9.06139 8.85689 9.06623Z" fill="#268000"/>
<path fill-rule="evenodd" clip-rule="evenodd" d="M16.5137 8.97915L16.5006 8.9831L16.4074 9.01162C16.3152 9.03988 16.1688 9.08477 16.0329 9.12504V11.6181L15.0823 12.1918L14.9315 12.2777L14.9246 12.2815C14.8345 12.331 14.7108 12.3964 14.5563 12.4721L14.1163 11.5741C14.2559 11.5057 14.3658 11.4475 14.4433 11.405L14.5763 11.3292L15.0329 11.0536V8.35518C15.2306 8.30753 15.4034 8.2629 15.5494 8.2235C15.6919 8.18504 15.9716 8.09928 16.1251 8.05224L16.2111 8.02593C16.5663 7.90786 16.6496 7.44333 16.3576 7.20921L9.33407 1.57779C9.57836 1.27311 9.71532 1.10229 9.95961 0.797608L16.9831 6.42902C17.8933 7.1588 17.6337 8.60682 16.5266 8.97486L16.5137 8.97915ZM3.04741 11.0402V8.36889C2.82534 8.314 2.63422 8.2627 2.47669 8.21821C2.34367 8.18065 2.08046 8.09602 1.93493 8.04923L1.85146 8.02248C1.50093 7.90016 1.42205 7.43987 1.71186 7.20782L8.74338 1.5776C8.91603 1.43935 9.1615 1.43943 9.33407 1.57779C9.57836 1.27311 9.71532 1.10229 9.95961 0.797608C9.42171 0.366317 8.65654 0.366063 8.11834 0.797002L1.08682 6.42722C0.18346 7.15055 0.429342 8.58536 1.522 8.96664L1.53561 8.97139L1.54936 8.97575L1.64011 9.00486C1.73938 9.03678 1.90541 9.09017 2.04741 9.13374V11.5905L2.96244 12.1702L3.10783 12.257L3.11502 12.2612C3.20142 12.3109 3.31934 12.3761 3.46648 12.4515C3.7602 12.6021 4.1738 12.795 4.68852 12.9864C5.71305 13.3672 7.17171 13.754 8.90066 13.7641C10.6806 13.7745 12.2032 13.3897 13.2745 13.0088C13.8133 12.8173 14.248 12.6232 14.5563 12.4721L14.1163 11.5741C13.8372 11.7108 13.4377 11.8895 12.9395 12.0666C11.9461 12.4197 10.5411 12.7737 8.90651 12.7641C7.32207 12.7549 5.98099 12.4 5.03695 12.049C4.56374 11.8731 4.18618 11.6967 3.92266 11.5616C3.79075 11.494 3.68699 11.4365 3.61365 11.3944L3.48656 11.3184L3.04741 11.0402ZM13.1436 9.94504C12.9296 10.0447 12.647 10.1654 12.3067 10.2864C11.4605 10.5872 10.2775 10.8828 8.91757 10.8748C7.60613 10.8672 6.48722 10.5725 5.69525 10.2781C5.38793 10.1639 5.13232 10.0506 4.93674 9.95607V8.74948C5.24994 8.79944 5.58393 8.84655 5.93674 8.88842C6.80572 8.99153 7.78887 9.06279 8.85689 9.06623C10.0622 9.07012 11.1729 8.98878 12.1436 8.871C12.4961 8.82822 12.8302 8.78064 13.1436 8.73059V9.94504Z" fill="white"/>
</svg>
