<svg width="20" height="16" viewBox="0 0 20 16" fill="none" xmlns="http://www.w3.org/2000/svg">
<path fill-rule="evenodd" clip-rule="evenodd" d="M10.208 2.10363C10.3807 1.96538 10.6262 1.96546 10.7987 2.10383L17.8222 7.73524C18.1142 7.96936 18.0309 8.43389 17.6758 8.55196C17.6572 8.55757 17.6273 8.56675 17.5898 8.57825C17.4363 8.62529 17.1566 8.71106 17.0141 8.74953C16.8681 8.78893 16.6953 8.83356 16.4976 8.88121V11.5797L16.041 11.8552L15.908 11.931C15.8305 11.9735 15.7206 12.0317 15.5809 12.1001C15.3019 12.2369 14.9024 12.4155 14.4042 12.5926C13.4108 12.9458 12.0057 13.2997 10.3712 13.2902C8.78673 13.2809 7.44565 12.926 6.50161 12.5751C6.0284 12.3992 5.65084 12.2228 5.38731 12.0877C5.25541 12.02 5.15165 11.9626 5.07831 11.9204L4.95122 11.8444L4.51207 11.5663V8.89492C4.29 8.84003 4.09888 8.78873 3.94135 8.74425C3.8083 8.70667 3.545 8.62202 3.39948 8.57523C3.36298 8.56349 3.33388 8.55414 3.31612 8.54851C2.96559 8.42619 2.88671 7.9659 3.17652 7.73385L10.208 2.10363ZM10.3215 9.59227C11.9646 9.59756 13.4318 9.4445 14.6082 9.25662V10.4711C14.3943 10.5708 14.1116 10.6915 13.7713 10.8124C12.9252 11.1132 11.7422 11.4088 10.3822 11.4009C9.07079 11.3932 7.95188 11.0985 7.15991 10.8041C6.85259 10.6899 6.59698 10.5766 6.40139 10.4821V9.27552C7.48604 9.44852 8.81992 9.58742 10.3215 9.59227Z" fill="#268000"/>
<path fill-rule="evenodd" clip-rule="evenodd" d="M10.7987 2.10382L12.0498 0.543454L19.0733 6.17487L17.8222 7.73524L10.7987 2.10382ZM4.51207 8.89492C4.47428 8.88558 4.43738 8.87634 4.4014 8.86722C4.2508 8.82907 4.11614 8.79302 3.99835 8.76023C3.97889 8.75481 3.95989 8.74948 3.94135 8.74425C3.80833 8.70668 3.54512 8.62205 3.39959 8.57526L3.31612 8.54851C2.96559 8.42619 2.88671 7.9659 3.17652 7.73385L3.84111 7.2017L10.208 2.10363C10.3807 1.96538 10.6262 1.96546 10.7987 2.10382L12.0498 0.543454C11.1466 -0.180768 9.8617 -0.181195 8.95797 0.542436L1.92645 6.17265C0.450373 7.35456 0.801572 9.6677 2.51207 10.3813V12.6669L3.90298 13.5479L4.06667 13.6457L4.08104 13.654C4.1805 13.7112 4.31259 13.7842 4.47497 13.8674C4.79888 14.0335 5.24852 14.243 5.80475 14.4497C6.90976 14.8605 8.48601 15.2792 10.3595 15.2901C12.2847 15.3014 13.9249 14.8856 15.0741 14.4771C15.6535 14.2711 16.1234 14.0616 16.461 13.8961C16.6303 13.8131 16.7678 13.7406 16.8706 13.6841L16.8844 13.6765L17.0529 13.5805L18.4976 12.7087V10.378C20.1939 9.66227 20.548 7.35721 19.0733 6.17487L17.8222 7.73524C18.1142 7.96936 18.0309 8.43389 17.6758 8.55196L17.5898 8.57825C17.4363 8.6253 17.1566 8.71107 17.0141 8.74953C17.0119 8.75011 17.0097 8.7507 17.0076 8.75128C16.8911 8.78269 16.7576 8.81737 16.6082 8.85422C16.5723 8.86309 16.5354 8.8721 16.4976 8.88121V11.5797L16.041 11.8552L15.908 11.931C15.8305 11.9735 15.7206 12.0317 15.5809 12.1001C15.5271 12.1265 15.4688 12.1545 15.4062 12.1836C15.1441 12.3057 14.8063 12.4497 14.4042 12.5926C13.4108 12.9458 12.0057 13.2997 10.3712 13.2902C8.78673 13.2809 7.44565 12.926 6.50161 12.5751C6.13336 12.4382 5.82303 12.301 5.5793 12.1832C5.50983 12.1496 5.44577 12.1176 5.38732 12.0877C5.25541 12.02 5.15165 11.9626 5.07831 11.9204L4.95122 11.8444L4.51207 11.5663V8.89492ZM6.51207 10.5345C6.69008 10.6172 6.90756 10.7103 7.15991 10.8041C7.93845 11.0935 9.03295 11.3832 10.3157 11.4002C10.3378 11.4005 10.36 11.4007 10.3822 11.4009C11.7422 11.4088 12.9252 11.1132 13.7713 10.8124C14.0559 10.7113 14.3001 10.6103 14.4976 10.5217C14.5363 10.5043 14.5732 10.4874 14.6082 10.4711V9.25662C14.5716 9.26247 14.5347 9.26828 14.4976 9.27406C14.3618 9.29516 14.2223 9.31575 14.0792 9.33567C13.8243 9.37118 13.558 9.40452 13.2815 9.43466C13.0633 9.45845 12.8388 9.48025 12.6082 9.49955C11.9187 9.5573 11.1761 9.59275 10.3928 9.5924C10.3691 9.59239 10.3453 9.59234 10.3215 9.59227C9.64495 9.59008 9.00242 9.56069 8.4014 9.51321C8.14852 9.49324 7.90299 9.47007 7.66536 9.44438C7.41654 9.41748 7.17638 9.38781 6.94553 9.35617C6.79714 9.33584 6.6526 9.31468 6.51207 9.29291C6.4749 9.28715 6.438 9.28135 6.4014 9.27552V10.4821C6.43638 10.499 6.47329 10.5165 6.51207 10.5345Z" fill="white"/>
</svg>
