<svg width="17" height="14" viewBox="0 0 17 14" fill="none" xmlns="http://www.w3.org/2000/svg">
<path d="M8 0.8L2.5 9.8H2C1 9.8 1 10.8 1 10.8V11.8C1 11.8 1 12.8 2 12.8H15C16 12.8 16 11.8 16 11.8V10.8C16 10.8 16 9.8 15 9.8H14.5L9 0.8C8.8 0.4 8.2 0.4 8 0.8ZM8.5 4.3L11.7 9.8H5.2L8.5 4.3Z" fill="#268000"/>
<path fill-rule="evenodd" clip-rule="evenodd" d="M1 10.8C1 10.8 1 9.8 2 9.8H2.5L8 0.8C8.2 0.4 8.8 0.4 9 0.8L14.5 9.8H15C16 9.8 16 10.8 16 10.8V11.8C16 11.8 16 12.8 15 12.8H2C1 12.8 1 11.8 1 11.8V10.8ZM1 11.8C0.5 11.8 0.5 11.8002 0.5 11.8005L0.500004 11.8022L0.50002 11.8047L0.500096 11.8109L0.500522 11.8279C0.500962 11.8411 0.501766 11.8582 0.503224 11.8786C0.506126 11.9192 0.511689 11.974 0.522428 12.0384C0.543511 12.1649 0.586608 12.3412 0.677786 12.5236C0.769944 12.7079 0.916032 12.9074 1.14452 13.0598C1.37615 13.2142 1.66251 13.3 2 13.3H15C15.3375 13.3 15.6239 13.2142 15.8555 13.0598C16.084 12.9074 16.2301 12.7079 16.3222 12.5236C16.4134 12.3412 16.4565 12.1649 16.4776 12.0384C16.4883 11.974 16.4939 11.9192 16.4968 11.8786C16.4982 11.8582 16.499 11.8411 16.4995 11.8279L16.4999 11.8109L16.5 11.8047L16.5 11.8022L16.5 11.801C16.5 11.8008 16.5 11.8 16 11.8H16.5V10.8H16C16.5 10.8 16.5 10.8003 16.5 10.8L16.5 10.799L16.5 10.7978L16.5 10.7953L16.4999 10.7891L16.4995 10.7721C16.499 10.7589 16.4982 10.7418 16.4968 10.7214C16.4939 10.6808 16.4883 10.626 16.4776 10.5616C16.4565 10.4351 16.4134 10.2588 16.3222 10.0764C16.2301 9.89208 16.084 9.69255 15.8555 9.54023C15.6239 9.38581 15.3375 9.3 15 9.3H14.7804L9.43604 0.554654C9.04537 -0.184885 7.95463 -0.184885 7.56396 0.554654L2.21958 9.3H2C1.66251 9.3 1.37615 9.38581 1.14452 9.54023C0.916032 9.69255 0.769944 9.89208 0.677786 10.0764C0.586608 10.2588 0.543511 10.4351 0.522428 10.5616C0.511689 10.626 0.506126 10.6808 0.503224 10.7214C0.501766 10.7418 0.500962 10.7589 0.500522 10.7721L0.500096 10.7891L0.50002 10.7953L0.500004 10.7978L0.500001 10.799C0.500001 10.7992 0.5 10.8 1 10.8H0.5L0.5 11.8005L1 11.8ZM8.5 4.3L5.2 9.8H11.7L8.5 4.3ZM8.49338 5.28286L6.08309 9.3H10.8306L8.49338 5.28286Z" fill="white"/>
</svg>
