<svg width="16" height="13" viewBox="0 0 16 13" fill="none" xmlns="http://www.w3.org/2000/svg">
<path fill-rule="evenodd" clip-rule="evenodd" d="M8.71436 1.61679C8.52025 1.46115 8.24412 1.46106 8.04991 1.61657L2.05216 6.41904C1.76745 6.64701 1.84494 7.09921 2.18931 7.21938L2.19029 7.21972L2.19238 7.22045L2.1992 7.22278L2.22331 7.2309C2.24399 7.2378 2.27385 7.24758 2.31255 7.25984C2.38994 7.28437 2.50269 7.31882 2.64813 7.35988C2.72182 7.38069 2.80392 7.40321 2.89408 7.427V9.5521L3.14138 9.70875L3.14257 9.7095L3.1448 9.7109L3.15144 9.71503L3.17342 9.72848C3.1919 9.73965 3.218 9.75517 3.25143 9.7744C3.31829 9.81286 3.41458 9.86624 3.53808 9.92955C3.78494 10.0561 4.14147 10.2228 4.58978 10.3895C5.48506 10.7223 6.75559 11.0582 8.25447 11.067C9.80222 11.076 11.1356 10.7406 12.0804 10.4048C12.5536 10.2365 12.932 10.0672 13.1945 9.93861C13.3258 9.87427 13.4283 9.81999 13.4993 9.78097C13.5349 9.76146 13.5626 9.74574 13.5821 9.73447L13.6053 9.72097L13.6122 9.71687L13.6145 9.71551L13.6159 9.71461L13.8727 9.55964V7.41674C13.9442 7.39842 14.0104 7.38094 14.0713 7.3645C14.2263 7.32267 14.3466 7.28755 14.4292 7.26258C14.4705 7.2501 14.5023 7.24015 14.5243 7.23316L14.5498 7.22496L14.557 7.22262L14.5591 7.22191L14.5603 7.22152C14.9091 7.10556 14.9909 6.64932 14.7042 6.41937L8.71436 1.61679ZM12.8101 7.65712C12.7906 7.66099 12.771 7.66487 12.7512 7.66874C11.6287 7.88856 10.0504 8.1068 8.22326 8.1009C6.491 8.09532 5.01421 7.88557 3.95671 7.67262V8.94958C3.97751 8.96053 3.99955 8.972 4.02282 8.98393C4.2376 9.09402 4.55582 9.24317 4.96003 9.39342C5.76978 9.69442 6.91535 9.99647 8.26069 10.0043C9.65398 10.0125 10.8625 9.70993 11.7244 9.40352C12.1545 9.25062 12.4956 9.09773 12.7269 8.9844C12.7564 8.9699 12.7842 8.95606 12.8101 8.94296V7.65712ZM3.42539 9.25971L3.14138 9.70875C3.14138 9.70875 3.14108 9.70855 3.42539 9.25971ZM2.34193 6.7813L2.18931 7.21938C2.18931 7.21938 2.18909 7.21931 2.34193 6.7813Z" fill="#268000"/>
<path fill-rule="evenodd" clip-rule="evenodd" d="M1.42713 5.63844L7.42488 0.835974L8.04992 1.61657L2.05217 6.41904C1.97951 6.47721 1.93044 6.54999 1.90338 6.62813C1.82461 6.85611 1.93296 7.12992 2.18932 7.21938L2.1903 7.21972L2.19239 7.22045L2.19921 7.22278L2.22332 7.2309C2.244 7.2378 2.27386 7.24758 2.31256 7.25984C2.38994 7.28437 2.5027 7.31881 2.64813 7.35988C2.72183 7.38069 2.80393 7.40321 2.89409 7.427V9.5521L3.14139 9.70875L3.14258 9.7095L3.1448 9.7109L3.15145 9.71503L3.17343 9.72848C3.19191 9.73965 3.21801 9.75517 3.25144 9.7744C3.3183 9.81286 3.41459 9.86624 3.53809 9.92955C3.67157 9.99797 3.83713 10.0781 4.03191 10.1637C4.03316 10.1642 4.0344 10.1648 4.03566 10.1653C4.03561 10.1653 4.0357 10.1654 4.03566 10.1653C4.20013 10.2375 4.3855 10.3135 4.58979 10.3895L4.24136 11.3268C3.75154 11.1447 3.35897 10.9615 3.08192 10.8194C2.94317 10.7483 2.83271 10.6872 2.75281 10.6412C2.71283 10.6182 2.68042 10.599 2.65586 10.5841L2.65173 10.5816L2.62289 10.564L2.61285 10.5577L2.60906 10.5553L2.60626 10.5535L1.89409 10.1024V8.17521L1.87477 8.16871L1.8654 8.16548L1.86162 8.16417L1.86064 8.16382C0.774148 7.78469 0.528861 6.3577 1.42713 5.63844ZM13.1945 9.93861C12.9321 10.0672 12.5536 10.2365 12.0804 10.4048C11.1356 10.7406 9.80223 11.076 8.25447 11.067C6.75559 11.0582 5.48507 10.7223 4.58979 10.3895L4.24136 11.3268C5.21713 11.6895 6.60524 12.0573 8.24862 12.0669C9.94174 12.0768 11.3927 11.7105 12.4153 11.347C12.9292 11.1643 13.3428 10.9795 13.6345 10.8366C13.7806 10.765 13.8969 10.7035 13.9806 10.6575C14.0225 10.6345 14.0564 10.6154 14.0818 10.6007L14.1089 10.5849L14.1225 10.5769L14.1256 10.575L14.1278 10.5737L14.8727 10.1241V8.17146L14.8749 8.17074C15.9757 7.80481 16.2347 6.36479 15.3297 5.63919L9.33992 0.836605C8.78046 0.388033 7.98463 0.387774 7.42488 0.835974L8.04992 1.61657C8.24413 1.46106 8.52025 1.46115 8.71437 1.61679L14.7042 6.41937C14.9909 6.64931 14.9091 7.10556 14.5603 7.22152L14.5591 7.22191L14.557 7.22262L14.5498 7.22496L14.5243 7.23316C14.5023 7.24015 14.4705 7.2501 14.4292 7.26258C14.3466 7.28755 14.2263 7.32267 14.0713 7.3645C14.0104 7.38094 13.9442 7.39842 13.8727 7.41674V9.55964L13.6145 9.71551L13.6122 9.71687L13.6053 9.72097L13.5821 9.73447C13.5626 9.74574 13.5349 9.76146 13.4993 9.78097C13.4283 9.81999 13.3258 9.87427 13.1945 9.93861ZM3.24028 9.5521C3.22884 9.57018 3.21873 9.58617 3.20978 9.60032C3.19191 9.62858 3.17871 9.64947 3.16896 9.66492C3.14132 9.70871 3.14139 9.70875 3.14139 9.70875M3.16896 9.66492L3.14139 9.70875ZM3.24028 9.5521C3.27634 9.4951 3.32554 9.41738 3.39268 9.31137ZM3.16896 9.66492L3.3858 9.32232ZM3.3858 9.32232L3.4254 9.25971C3.41405 9.27764 3.40315 9.29485 3.39268 9.31137M12.8101 8.94296C12.7842 8.95606 12.7564 8.9699 12.7269 8.9844C12.4956 9.09773 12.1545 9.25062 11.7244 9.40352C10.8625 9.70993 9.65399 10.0125 8.26069 10.0043C6.91536 9.99647 5.76979 9.69442 4.96004 9.39342C4.55583 9.24316 4.2376 9.09402 4.02283 8.98393C3.99956 8.972 3.97751 8.96053 3.95672 8.94958V7.67262C4.25741 7.73317 4.59199 7.79346 4.95672 7.84887C5.87469 7.98834 6.98356 8.09691 8.22327 8.1009C9.58591 8.1053 10.8101 7.98504 11.8101 7.83243C12.151 7.78041 12.4658 7.72463 12.7512 7.66874L12.8101 7.65712V8.94296ZM2.27102 6.9846C2.28994 6.93034 2.31325 6.86354 2.34194 6.7813L2.18932 7.21938C2.18932 7.21938 2.18917 7.21933 2.27102 6.9846Z" fill="white"/>
</svg>
